<svg width="95" height="95" viewBox="0 0 95 95" fill="none" xmlns="http://www.w3.org/2000/svg">
<rect width="95" height="95" rx="30" fill="#2688EB"/>
<path fill-rule="evenodd" clip-rule="evenodd" d="M74.0399 19.9601C76.6534 22.5736 76.6534 26.811 74.0399 29.4245L56.4643 47L74.0399 64.5755C76.6534 67.189 76.6534 71.4264 74.0399 74.0399C71.4264 76.6534 67.189 76.6534 64.5755 74.0399L47 56.4644L29.4245 74.0399C26.811 76.6534 22.5736 76.6534 19.9601 74.0399C17.3466 71.4264 17.3466 67.189 19.9601 64.5755L37.5356 47L19.9601 29.4245C17.3466 26.811 17.3466 22.5736 19.9601 19.9601C22.5736 17.3466 26.811 17.3466 29.4245 19.9601L47 37.5356L64.5755 19.9601C67.189 17.3466 71.4264 17.3466 74.0399 19.9601Z" fill="white"/>
</svg>
