<svg width="49" height="49" viewBox="0 0 49 49" fill="none" xmlns="http://www.w3.org/2000/svg">
<path d="M24.5 0.275024C37.8791 0.275024 48.725 11.1209 48.725 24.5C48.725 37.8791 37.8791 48.725 24.5 48.725C11.1209 48.725 0.275024 37.8791 0.275024 24.5C0.275024 11.1209 11.1209 0.275024 24.5 0.275024ZM24.5 4.55002C13.4819 4.55002 4.55002 13.4819 4.55002 24.5C4.55002 35.5181 13.4819 44.45 24.5 44.45C35.5181 44.45 44.45 35.5181 44.45 24.5C44.45 13.4819 35.5181 4.55002 24.5 4.55002ZM33.2405 30.3611C34.096 31.1746 34.13 32.5275 33.3165 33.383C32.8342 33.8901 32.0149 34.5745 30.8806 35.2458C28.9913 36.3639 26.8496 37.04 24.5 37.04C22.1504 37.04 20.0088 36.3639 18.1195 35.2458C16.9852 34.5745 16.1658 33.8901 15.6836 33.383C14.8701 32.5275 14.9041 31.1746 15.7596 30.3611C16.5373 29.6215 17.7261 29.5824 18.5471 30.2241L19.1069 30.7369C19.3865 30.9714 19.7888 31.2662 20.2967 31.5668C21.5678 32.319 22.9806 32.765 24.5 32.765C26.0195 32.765 27.4322 32.319 28.7033 31.5668C29.2113 31.2662 29.6135 30.9714 29.8932 30.7368L30.2186 30.437C31.0321 29.5816 32.385 29.5476 33.2405 30.3611ZM17.7313 16.6625C19.502 16.6625 20.9375 18.098 20.9375 19.8688C20.9375 21.6395 19.502 23.075 17.7313 23.075C15.9605 23.075 14.525 21.6395 14.525 19.8688C14.525 18.098 15.9605 16.6625 17.7313 16.6625ZM31.2688 16.6625C33.0395 16.6625 34.475 18.098 34.475 19.8688C34.475 21.6395 33.0395 23.075 31.2688 23.075C29.4981 23.075 28.0625 21.6395 28.0625 19.8688C28.0625 18.098 29.4981 16.6625 31.2688 16.6625Z" fill="#2688EB"/>
</svg>
