<svg width="30" height="30" viewBox="0 0 30 30" fill="none" xmlns="http://www.w3.org/2000/svg">
<path fill-rule="evenodd" clip-rule="evenodd" d="M24.375 15C24.375 9.82233 20.1777 5.625 15 5.625C9.82233 5.625 5.625 9.82233 5.625 15C5.625 20.1777 9.82233 24.375 15 24.375C20.1777 24.375 24.375 20.1777 24.375 15ZM30 15C30 6.71573 23.2843 8.89561e-07 15 1.25168e-06C6.71573 1.61379e-06 -1.01779e-06 6.71573 -6.55671e-07 15C-2.93554e-07 23.2843 6.71573 30 15 30C23.2843 30 30 23.2843 30 15Z" fill="#E64646"/>
</svg>
