<svg width="26" height="26" viewBox="0 0 26 26" fill="none" xmlns="http://www.w3.org/2000/svg">
<path fill-rule="evenodd" clip-rule="evenodd" d="M0.878678 0.878681C2.05025 -0.292891 3.94975 -0.292891 5.12132 0.878681L13 8.75736L20.8787 0.87868C22.0503 -0.292892 23.9497 -0.292892 25.1213 0.87868C26.2929 2.05025 26.2929 3.94975 25.1213 5.12132L17.2426 13L25.1213 20.8787C26.2929 22.0503 26.2929 23.9497 25.1213 25.1213C23.9497 26.2929 22.0503 26.2929 20.8787 25.1213L13 17.2426L5.12132 25.1213C3.94975 26.2929 2.05026 26.2929 0.878684 25.1213C-0.292889 23.9497 -0.292889 22.0503 0.878683 20.8787L8.75736 13L0.878679 5.12132C-0.292894 3.94975 -0.292894 2.05025 0.878678 0.878681Z" fill="#2688EB"/>
</svg>
