<svg width="350" height="347" viewBox="0 0 350 347" fill="none" xmlns="http://www.w3.org/2000/svg">
<rect width="350" height="347" rx="30" fill="#2688EB"/>
<path d="M92.4663 105.05L90.6985 106.818L92.4663 105.05L59.5257 72.1093C55.4986 68.0822 55.4986 61.5529 59.5257 57.5258C63.5529 53.4986 70.0822 53.4986 74.1093 57.5258L107.05 90.4663C108.417 91.8331 110.633 91.8331 112 90.4663L144.94 57.5257C148.967 53.4986 155.497 53.4986 159.524 57.5257C163.551 61.5529 163.551 68.0822 159.524 72.1093L126.583 105.05C125.216 106.417 125.216 108.633 126.583 110L159.524 142.94C163.551 146.967 163.551 153.497 159.524 157.524C155.497 161.551 148.967 161.551 144.94 157.524L112 124.583C110.633 123.216 108.417 123.216 107.05 124.583L74.1093 157.524C70.0822 161.551 63.5529 161.551 59.5257 157.524C55.4986 153.497 55.4986 146.967 59.5257 142.94L92.4663 110C93.8331 108.633 93.8331 106.417 92.4663 105.05Z" fill="#2688EB" stroke="white" stroke-width="5"/>
<path d="M224.588 230.144L222.821 231.912L224.588 230.144L191.648 197.204C187.621 193.177 187.621 186.647 191.648 182.62C195.675 178.593 202.204 178.593 206.231 182.62L239.172 215.561C240.539 216.927 242.755 216.927 244.122 215.561L277.062 182.62C281.089 178.593 287.619 178.593 291.646 182.62C295.673 186.647 295.673 193.177 291.646 197.204L258.705 230.144C257.338 231.511 257.338 233.727 258.705 235.094L291.646 268.035C295.673 272.062 295.673 278.591 291.646 282.618C287.619 286.645 281.089 286.645 277.062 282.618L244.122 249.678C242.755 248.311 240.539 248.311 239.172 249.678L206.231 282.618C202.204 286.645 195.675 286.645 191.648 282.618C187.621 278.591 187.621 272.062 191.648 268.035L224.588 235.094C225.955 233.727 225.955 231.511 224.588 230.144Z" fill="#2688EB" stroke="white" stroke-width="5"/>
<path fill-rule="evenodd" clip-rule="evenodd" d="M240.944 146.353C262.777 146.353 280.475 128.655 280.475 106.822C280.475 84.9896 262.777 67.2909 240.944 67.2909C219.112 67.2909 201.413 84.9896 201.413 106.822C201.413 128.655 219.112 146.353 240.944 146.353ZM240.944 170.072C275.876 170.072 304.194 141.754 304.194 106.822C304.194 71.8901 275.876 43.5721 240.944 43.5721C206.012 43.5721 177.694 71.8901 177.694 106.822C177.694 141.754 206.012 170.072 240.944 170.072Z" fill="white"/>
<path fill-rule="evenodd" clip-rule="evenodd" d="M108.822 277.07C130.655 277.07 148.353 259.371 148.353 237.539C148.353 215.706 130.655 198.007 108.822 198.007C86.9897 198.007 69.291 215.706 69.291 237.539C69.291 259.371 86.9897 277.07 108.822 277.07ZM108.822 300.788C143.754 300.788 172.072 272.471 172.072 237.539C172.072 202.607 143.754 174.289 108.822 174.289C73.8902 174.289 45.5723 202.607 45.5723 237.539C45.5723 272.471 73.8902 300.788 108.822 300.788Z" fill="white"/>
</svg>
