<svg width="66" height="66" viewBox="0 0 66 66" fill="none" xmlns="http://www.w3.org/2000/svg">
<path d="M27.5 31.625C27.5 33.9032 25.6532 35.75 23.375 35.75C21.0968 35.75 19.25 33.9032 19.25 31.625C19.25 29.3468 21.0968 27.5 23.375 27.5C25.6532 27.5 27.5 29.3468 27.5 31.625Z" fill="#2688EB"/>
<path d="M26.7396 42.2761C27.4829 41.2206 28.9411 40.9675 29.9966 41.7108C30.1236 41.8001 30.2545 41.884 30.3892 41.9619C31.1554 42.405 32.0444 42.6594 33 42.6594C33.9556 42.6594 34.8447 42.405 35.6108 41.9619C35.7455 41.884 35.8765 41.8001 36.0034 41.7108C37.0589 40.9675 38.5171 41.2206 39.2604 42.2761C40.0037 43.3316 39.7506 44.7898 38.6951 45.5331C38.455 45.7022 38.207 45.8609 37.9517 46.0086C36.4932 46.8523 34.7993 47.3344 33 47.3344C31.2007 47.3344 29.5069 46.8523 28.0483 46.0086C27.793 45.8609 27.545 45.7022 27.3049 45.5331C26.2494 44.7898 25.9963 43.3316 26.7396 42.2761Z" fill="#2688EB"/>
<path d="M40.7705 34.2552C41.0311 34.1044 41.3331 34.0175 41.6626 34.0175C41.992 34.0175 42.2941 34.1044 42.5546 34.2552C42.6613 34.3169 42.7616 34.3896 42.8537 34.4721C43.8156 35.333 45.2934 35.2512 46.1543 34.2892C47.0153 33.3273 46.9334 31.8495 45.9715 30.9886C45.642 30.6937 45.2817 30.4318 44.8955 30.2085C43.9426 29.6572 42.8358 29.3425 41.6626 29.3425C40.4894 29.3425 39.3826 29.6572 38.4296 30.2085C38.0435 30.4318 37.6831 30.6937 37.3537 30.9886C36.3917 31.8495 36.3099 33.3273 37.1708 34.2892C38.0318 35.2512 39.5095 35.333 40.4715 34.4721C40.5636 34.3896 40.6638 34.3169 40.7705 34.2552Z" fill="#2688EB"/>
<path fill-rule="evenodd" clip-rule="evenodd" d="M38.5 8.25C38.5 10.3973 37.2695 12.2572 35.4751 13.1629V16.7749H41.9037C44.1259 16.7749 45.9432 16.7749 47.4202 16.8956C48.9489 17.0205 50.3296 17.2869 51.6191 17.9439C53.6371 18.9721 55.2778 20.6128 56.3061 22.6309C56.9631 23.9203 57.2295 25.301 57.3544 26.8298C57.4751 28.3068 57.4751 30.1241 57.475 32.3462V41.9036C57.4751 44.1258 57.4751 45.9431 57.3544 47.4201C57.2295 48.9488 56.9631 50.3295 56.3061 51.619C55.2778 53.637 53.6371 55.2777 51.6191 56.306C50.3296 56.963 48.9489 57.2294 47.4202 57.3543C45.9432 57.475 44.1259 57.475 41.9037 57.4749H24.0963C21.8742 57.475 20.0569 57.475 18.5799 57.3543C17.0511 57.2294 15.6704 56.963 14.381 56.306C12.3629 55.2777 10.7222 53.637 9.69398 51.619C9.03698 50.3295 8.77055 48.9488 8.64565 47.4201C8.52497 45.9431 8.525 44.1258 8.52503 41.9037V32.3463C8.525 30.1241 8.52497 28.3068 8.64565 26.8298C8.77055 25.301 9.03698 23.9203 9.69398 22.6309C10.7222 20.6128 12.3629 18.9721 14.381 17.9439C15.6704 17.2869 17.0511 17.0205 18.5799 16.8956C20.0569 16.7749 21.8742 16.7749 24.0963 16.7749H30.5251V13.163C28.7306 12.2573 27.5 10.3974 27.5 8.25C27.5 5.21243 29.9624 2.75 33 2.75C36.0376 2.75 38.5 5.21243 38.5 8.25ZM18.983 21.8291C17.7603 21.929 17.1036 22.1122 16.6282 22.3544C15.5416 22.908 14.6581 23.7915 14.1045 24.8781C13.8623 25.3535 13.6791 26.0102 13.5792 27.2329C13.477 28.4844 13.475 30.0989 13.475 32.4499V41.7999C13.475 44.151 13.477 45.7654 13.5792 47.017C13.6791 48.2396 13.8623 48.8964 14.1045 49.3717C14.6581 50.4584 15.5416 51.3418 16.6282 51.8955C17.1036 52.1377 17.7603 52.3209 18.983 52.4208C20.2345 52.523 21.849 52.5249 24.2 52.5249H41.8C44.1511 52.5249 45.7655 52.523 47.0171 52.4208C48.2397 52.3209 48.8965 52.1377 49.3718 51.8955C50.4585 51.3418 51.3419 50.4584 51.8956 49.3717C52.1378 48.8964 52.3209 48.2396 52.4208 47.017C52.5231 45.7654 52.525 44.151 52.525 41.7999V32.4499C52.525 30.0989 52.5231 28.4844 52.4208 27.2329C52.3209 26.0102 52.1378 25.3535 51.8956 24.8781C51.3419 23.7915 50.4585 22.908 49.3718 22.3544C48.8965 22.1122 48.2397 21.929 47.0171 21.8291C45.7655 21.7269 44.1511 21.7249 41.8 21.7249H24.2C21.849 21.7249 20.2345 21.7269 18.983 21.8291Z" fill="#2688EB"/>
</svg>
